<svg width="167" height="45" viewBox="0 0 167 45" fill="none" xmlns="http://www.w3.org/2000/svg">
<g clip-path="url(#clip0_11506_93461)">
<path d="M23.1725 30.9664C23.1379 30.9516 20.0423 28.8499 20.0423 28.8499L17.1495 26.7977L14.4198 24.795L12.3231 23.1977L9.97913 21.3186L7.62529 19.3208C7.62529 19.3208 5.9143 17.778 5.84507 17.7087C5.77584 17.6395 4.12419 16.0126 4.12419 16.0126L2.8632 14.6181L2.29452 13.8664L1.71595 13.1247L1.09287 12.0862C1.09287 12.0862 0.667594 11.4582 0.529133 10.578C0.410451 9.82631 0.608254 9.41092 0.608254 9.41092C0.608254 9.41092 0.70221 9.04004 1.01869 8.60982C1.33518 8.1796 1.57748 7.73949 3.06595 6.89883C3.5654 6.64664 4.56924 6.14224 4.78683 6.03839C5.80551 5.57356 6.69067 5.30158 6.86375 5.24224C7.03683 5.1829 7.70441 4.94059 8.05056 4.83675C8.39672 4.7329 11.1264 3.91696 14.7165 3.19004C15.1418 3.10598 16.4819 2.81422 16.828 2.75488C17.1742 2.69554 19.6467 2.28015 20.789 2.09224C22.7374 1.77576 23.6967 1.66696 24.0874 1.62246C24.478 1.57795 25.1407 1.484 25.1407 1.484C25.1407 1.484 25.8577 1.3851 25.8725 1.3851C26.5302 1.2862 26.7577 1.29114 26.8121 1.39993C26.8665 1.50872 26.8467 1.61751 26.7973 1.67191C26.7033 1.76587 26.0407 1.8796 26.0407 1.8796L24.4335 2.2307L23.1676 2.57191L21.6445 2.96751L20.4181 3.32356L18.4995 3.9318L16.8874 4.54004C16.8874 4.54004 15.4731 5.09389 15.1962 5.2274C14.8797 5.37081 14.1824 5.70707 13.4555 6.07301C12.5209 6.59718 11.7594 7.12631 11.4478 7.34389C11.1511 7.57631 10.8148 7.82356 10.528 8.08565C10.2412 8.34773 9.87034 8.75817 9.58353 9.10433C9.29671 9.45048 8.95056 10.0241 8.92089 10.2367C8.72309 10.7065 8.61924 11.2208 8.60441 11.6115C8.59452 12.0219 8.59946 12.5362 8.74782 13.1197C8.86155 13.7675 9.30661 14.6824 9.42034 14.9296C9.53408 15.1769 10.0434 16.0719 10.5231 16.9225C10.7506 17.328 11.517 18.4505 11.517 18.4505L12.6 19.8648C12.6 19.8648 13.5791 21.101 13.9599 21.4917C14.3555 21.9714 14.6918 22.3472 14.8995 22.5549C15.1072 22.7626 15.4236 23.084 15.4236 23.084C15.4236 23.084 15.6363 23.3312 16.2 23.9197C16.7637 24.5082 17.0011 24.7356 17.0011 24.7356L18.6577 26.3131C18.6577 26.3131 19.4687 27.1192 20.4478 27.9994C21.8275 29.2356 23.5138 30.6747 23.5286 30.7439C23.5978 30.8626 23.5533 30.9417 23.5187 30.9763C23.405 31.1049 23.1923 30.9862 23.1626 30.9714L23.1725 30.9664Z" fill="white"/>
<path d="M39.18 26.2148C39.0366 26.3087 38.9822 26.6005 38.8932 26.8774C38.7893 27.273 38.7646 27.4016 38.6459 27.817C38.4333 28.4203 38.1564 29.2956 38.1564 29.2956C38.1564 29.2956 37.8399 30.0274 37.736 30.2203C36.7272 32.1488 36.1981 32.9203 35.9657 33.2467C35.7333 33.573 34.6899 34.8291 34.0569 35.2741C32.9146 36.2038 31.9602 36.4263 31.7772 36.4956C31.5003 36.5895 31.2184 36.6538 30.9118 36.6983C30.6052 36.7428 30.4124 36.7527 30.0267 36.7477C28.3355 36.728 27.8014 36.5153 27.3267 36.4313C26.3871 36.2137 25.6503 35.9368 25.2498 35.7934C24.9728 35.7192 23.9888 35.284 23.0789 34.8884C22.6338 34.6956 21.3481 34.0428 21.3481 34.0428L19.7162 33.1725C19.7162 33.1725 18.2871 32.3763 17.8272 32.0549C17.2734 31.7335 16.8283 31.4467 16.586 31.2736C16.3437 31.1005 15.958 30.8285 15.958 30.8285C15.958 30.8285 15.6712 30.6554 14.9789 30.1758C14.2866 29.6961 14.0146 29.4934 14.0146 29.4934L12.1355 28.0692C12.1355 28.0692 11.1811 27.3769 10.1228 26.5263C8.63932 25.3296 7.03712 24.034 6.91844 23.9945C6.79976 23.9549 6.74042 24.0439 6.73053 24.0538C6.70086 24.0884 6.69591 24.1428 6.7058 24.1972C6.71569 24.2417 6.75525 24.3357 6.9036 24.5038C7.0025 24.6373 7.50195 25.206 7.50195 25.206C7.68987 25.4186 9.29206 27.0703 9.29206 27.0703C9.29206 27.0703 11.8338 29.6269 11.8734 29.6664C11.9129 29.706 14.3311 32.1043 14.3311 32.1043L16.2943 33.9686L18.5888 36.0406L21.0069 38.0977C21.0069 38.0977 22.8613 39.5813 22.9454 39.6406C23.0294 39.6999 24.958 41.1093 24.958 41.1093L26.5899 42.1626L27.5146 42.7263C27.5146 42.7263 27.93 42.9736 28.4987 43.2554C29.0673 43.5373 29.8635 43.8538 29.8635 43.8538C29.8635 43.8538 30.6547 44.2049 31.5399 44.3977C32.3311 44.5461 32.608 44.5906 33.3448 44.4769C34.0915 44.2939 34.7443 43.8736 35.4366 43.1318C35.5305 43.0626 36.025 42.4296 36.7371 40.9956C36.8706 40.7285 37.3305 39.9225 37.558 39.339C37.7855 38.7554 38.1514 37.6923 38.2305 37.4945C38.3937 37.084 38.7448 35.7192 38.8239 35.3928C38.9031 35.0664 39.1948 33.5038 39.2492 33.1379C39.3036 32.7719 39.6448 30.245 39.6448 30.245C39.6448 30.245 40.0701 27.3274 40.0701 26.9714C40.0701 26.6153 40.1344 26.5362 40.0058 26.3829C39.7487 26.0318 39.3085 26.1159 39.1651 26.2098L39.18 26.2148Z" fill="white"/>
<path d="M50.4743 3.1888C50.3606 2.60034 50.1727 2.17506 50.0738 2.00693C49.6238 1.14155 49.2232 0.993196 49.0205 0.830009C48.8178 0.666823 48.348 0.444295 48.1304 0.380009C47.9128 0.315724 47.265 0.0981412 46.3106 0.0486907C45.4254 -0.000759865 45.5689 -0.00570492 44.5502 0.00418519C43.843 0.0140753 43.1507 0.122867 43.1507 0.122867C43.1507 0.122867 41.1183 0.434405 41.0342 0.44924C40.9502 0.464075 38.9524 0.938801 38.9524 0.938801L36.5441 1.51737L34.3535 2.17012L31.8562 2.98605C31.8562 2.98605 29.1167 3.94539 28.8546 4.03935C28.8101 4.05419 25.7293 5.21627 25.7293 5.21627C25.7293 5.21627 23.9145 5.90858 23.5287 6.06682C23.1282 6.22506 23.1134 6.23495 22.9205 6.31408C22.6634 6.44265 22.6683 6.45254 22.6337 6.48715C22.5991 6.52177 22.604 6.59594 22.609 6.61572C22.6189 6.65528 22.6238 6.71462 22.7029 6.7443C22.8414 6.7888 23.3211 6.61572 26.1595 5.81462C27.287 5.49814 28.1919 5.31517 28.4145 5.27067C28.637 5.22616 29.5518 5.00364 30.076 4.89484C30.5705 4.81078 31.154 4.69704 31.8711 4.57836C32.4496 4.50419 32.8502 4.44979 32.8897 4.44979C32.9293 4.44979 33.493 4.36572 33.7551 4.341C34.4771 4.27671 34.4573 4.27671 35.0112 4.22726C35.6145 4.17781 36.1238 4.20254 36.3908 4.20254C36.8754 4.20254 37.1326 4.22232 37.7062 4.25693C37.998 4.26682 39.0562 4.40034 39.526 4.48441C39.9958 4.56847 40.8463 4.75638 41.6227 5.1421C42.3892 5.47836 43.2595 6.23495 43.4771 6.50693C43.6947 6.77891 43.9469 7.10034 44.0458 7.26353C44.1447 7.42671 44.3276 7.83715 44.4265 8.05474C44.5057 8.2377 44.5947 8.57891 44.7579 8.83111C44.7974 8.89539 44.8518 8.96462 44.8518 8.96462C44.8518 8.96462 44.9754 9.15254 45.1733 9.17726C45.3414 9.21188 45.5787 9.17726 45.9397 9.18221C46.1227 9.18221 46.3551 9.18221 46.5134 9.1921C46.7705 9.20693 46.7804 9.20199 47.1414 9.25144C47.4529 9.32067 47.4628 9.32067 47.7101 9.39484C47.9128 9.45418 48.0265 9.4888 48.0265 9.4888C48.0265 9.4888 48.5853 9.66682 48.6546 9.69649C48.7238 9.72616 49.0304 9.84484 49.1194 9.89429C49.2084 9.94375 49.4211 10.0476 49.4606 10.0723C49.5002 10.097 49.5447 10.1267 49.5842 10.1514C49.6238 10.1762 49.6733 10.2157 49.7771 10.2157C49.8809 10.2157 49.9205 10.2157 49.9798 10.191C50.0392 10.1663 50.0689 10.1317 50.1084 10.0921C50.148 10.0525 50.1776 9.99814 50.2024 9.9388C50.2271 9.87946 50.2222 9.89429 50.2419 9.7855C50.2617 9.67671 50.2568 9.63221 50.3112 9.31078C50.3656 8.98935 50.4595 8.48495 50.5337 7.3377C50.6079 6.19045 50.6079 5.68111 50.6178 4.9888C50.6276 4.29649 50.6079 4.13331 50.5782 3.88605C50.5485 3.6388 50.5782 3.77726 50.4645 3.1888H50.4743Z" fill="white"/>
<path d="M49.0254 14.2906C49.0254 14.2906 49.0402 13.5835 49.0353 13.3906L49.0254 14.2906Z" fill="#231F20"/>
<path d="M53.709 37.5177C53.709 34.8375 55.7365 33.0078 58.2832 33.0078C60.2711 33.0078 61.3837 34.0562 61.9969 35.1391L60.3996 35.9254C60.0337 35.2183 59.2474 34.6595 58.2832 34.6595C56.765 34.6595 55.6178 35.8759 55.6178 37.5226C55.6178 39.1694 56.77 40.3858 58.2832 40.3858C59.2524 40.3858 60.0337 39.8369 60.3996 39.1199L61.9969 39.8913C61.3689 40.9743 60.2711 42.0375 58.2832 42.0375C55.7315 42.0375 53.709 40.2078 53.709 37.5276V37.5177Z" fill="white"/>
<path d="M69.7407 41.8676L68.0297 38.7423H66.6698V41.8676H64.8154V33.1445H68.8951C70.7149 33.1445 71.8226 34.3363 71.8226 35.9533C71.8226 37.5704 70.8533 38.322 69.9138 38.5445L71.877 41.8676H69.7456H69.7407ZM68.6182 34.7418H66.6698V37.15H68.6182C69.3649 37.15 69.9237 36.6802 69.9237 35.9484C69.9237 35.2165 69.3599 34.7467 68.6182 34.7467V34.7418Z" fill="white"/>
<path d="M74.9238 41.8676V33.1445H81.0953V34.7418H76.7782V36.6357H81.0013V38.233H76.7782V40.2605H81.0953V41.8676H74.9238Z" fill="white"/>
<path d="M84.2451 41.8676V33.1445H87.6819C90.4165 33.1445 92.3105 34.8852 92.3105 37.511C92.3105 40.1368 90.4165 41.8676 87.6819 41.8676H84.2451ZM86.1045 40.2357H87.6869C89.4127 40.2357 90.4215 38.9945 90.4215 37.516C90.4215 36.0374 89.4819 34.7813 87.6869 34.7813H86.1045V40.2357Z" fill="white"/>
<path d="M95.6631 41.8676V33.1445H97.5175V41.8676H95.6631Z" fill="white"/>
<path d="M103.283 41.8685V34.7823H100.731V33.1504H107.689V34.7823H105.152V41.8685H103.283Z" fill="white"/>
<path d="M115.671 33.1445H117.555V38.322C117.555 39.5385 118.223 40.3742 119.582 40.3742C120.942 40.3742 121.585 39.5385 121.585 38.322V33.1445H123.469V38.3764C123.469 40.5473 122.228 42.0258 119.587 42.0258C116.947 42.0258 115.676 40.5374 115.676 38.3912V33.1495L115.671 33.1445Z" fill="white"/>
<path d="M132.815 41.8676L128.656 36.0077V41.8676H126.802V33.1445H128.711L132.751 38.7918V33.1445H134.605V41.8676H132.815Z" fill="white"/>
<path d="M138.245 41.8676V33.1445H140.1V41.8676H138.245Z" fill="white"/>
<path d="M147.803 33.002C150.444 33.002 152.368 34.886 152.368 37.5118C152.368 40.1377 150.444 42.0217 147.803 42.0217C145.163 42.0217 143.254 40.1377 143.254 37.5118C143.254 34.886 145.178 33.002 147.803 33.002ZM147.803 34.6536C146.196 34.6536 145.163 35.8849 145.163 37.5168C145.163 39.1487 146.196 40.38 147.803 40.38C149.411 40.38 150.459 39.1388 150.459 37.5168C150.459 35.8948 149.411 34.6536 147.803 34.6536Z" fill="white"/>
<path d="M161.709 41.9477L157.551 36.0878V41.9477H155.696V33.2246H157.605L161.645 38.8719V33.2246H163.5V41.9477H161.709Z" fill="white"/>
<path d="M35.5545 14.6267C35.2034 14.5376 34.8325 14.4931 34.4616 14.4931C34.1995 14.4931 33.9375 14.5376 33.6754 14.6267C33.6309 12.525 33.0622 11.1206 31.1336 11.1206C27.8946 11.1206 25.2193 16.1992 25.2193 19.814C25.2193 22.3311 26.4902 24.3041 28.9429 24.3041C30.5847 24.3041 32.0534 23.2756 33.2155 22.2223L33.8732 22.9245C32.1424 24.675 30.021 25.7926 27.5237 25.7926C24.1314 25.7926 21.3721 23.6019 21.3721 19.8585C21.3721 14.142 25.5754 10.0723 31.1386 10.0723C33.0671 10.0723 34.9067 10.5124 35.955 11.2789L35.5594 14.6316L35.5545 14.6267Z" fill="white"/>
<path d="M45.7424 10.0723C49.5946 10.0723 52.4677 12.3272 52.4677 16.3377C52.4677 21.4855 48.0864 25.7975 42.9831 25.7975C39.1309 25.7975 36.2578 23.5426 36.2578 19.5322C36.2578 14.3844 40.6391 10.0723 45.7424 10.0723ZM43.0276 24.7442C46.5534 24.7442 48.5661 18.9833 48.6106 14.5822C48.6106 12.6536 47.8441 11.1206 45.6979 11.1206C42.1721 11.1206 40.1595 16.8816 40.115 21.2827C40.115 23.2113 40.8814 24.7442 43.0276 24.7442Z" fill="white"/>
<path d="M67.4402 25.5762C67.0249 25.4872 66.5007 25.4427 65.6205 25.4427C64.6562 25.4427 63.954 25.4872 63.5386 25.5762L57.7133 14.1432C55.5227 22.8168 55.3496 23.2075 55.3496 23.8652C55.3496 24.3894 55.8738 24.5674 56.9913 24.6119V25.5762C56.5117 25.4872 55.6314 25.4427 54.4743 25.4427C53.51 25.4427 52.8325 25.4872 52.4814 25.5762V24.6119C53.4902 24.5031 53.9946 24.1718 54.1677 23.519L56.9716 12.6548L55.765 10.291C56.4424 10.3355 57.1446 10.4245 57.8468 10.4245C58.46 10.4245 59.0732 10.3355 59.6864 10.291L65.4869 21.7883C67.6974 13.3124 68.004 13.2284 68.004 12.1751C68.004 11.5174 67.6529 11.2998 66.3622 11.2553V10.291C66.8419 10.38 67.7221 10.4245 68.8792 10.4245C69.8435 10.4245 70.521 10.38 70.8721 10.291V11.2553C69.5369 11.4284 69.2749 12.0416 68.9683 13.1394L66.2534 23.1679L67.4353 25.5762H67.4402Z" fill="white"/>
<path d="M70.7486 20.6318C70.9909 20.6763 71.2975 20.7208 71.6882 20.7208C71.97 20.7208 72.3211 20.6763 72.5832 20.6318C72.5832 23.2378 73.6563 24.751 76.2821 24.751C78.4728 24.751 79.7437 23.9648 79.7437 22.234C79.7437 19.4746 72.2569 19.5389 72.2569 14.5939C72.2569 11.617 74.7541 10.084 78.1909 10.084C80.1393 10.084 81.8058 10.5439 83.5118 11.2213L83.2052 14.2873C82.9629 14.1983 82.681 14.1538 82.3299 14.1538C82.0233 14.1538 81.7365 14.1983 81.519 14.2873C81.4992 12.0966 80.4014 11.1323 78.4728 11.1323C76.2376 11.1323 75.1893 11.8345 75.1893 13.1054C75.1893 16.2159 82.6761 15.756 82.6761 20.8593C82.6761 23.7076 80.4854 25.8093 77.0288 25.8093C74.2695 25.8093 72.2321 24.9983 70.3926 23.6631L70.7437 20.6417L70.7486 20.6318Z" fill="white"/>
<path d="M101.665 11.2554C100.043 11.4285 100.305 11.562 98.0751 19.2021C96.8487 23.4302 95.4938 25.7939 91.1323 25.7939C88.3531 25.7939 85.9004 24.4785 85.9004 21.3681C85.9004 18.9598 87.9575 13.7032 87.9575 11.9725C87.9575 11.4681 87.4779 11.295 86.291 11.2505V10.2862C87.102 10.3752 88.546 10.4197 90.4943 10.4197C92.0718 10.4197 93.1845 10.3752 93.7779 10.2862V11.2505C92.1361 11.295 91.8295 11.4928 91.4784 13.1098C91.1273 14.7516 89.268 20.8389 89.268 22.3719C89.268 24.0582 90.7119 24.4736 92.1361 24.4736C94.7421 24.4736 96.2306 21.823 97.1702 18.495C97.4965 17.3329 98.7674 12.912 98.7674 12.0763C98.7674 11.4186 98.263 11.29 97.0564 11.2455V10.2812C97.5608 10.3703 98.4361 10.4148 99.6427 10.4148C100.607 10.4148 101.309 10.3703 101.655 10.2812V11.2455L101.665 11.2554Z" fill="white"/>
<path d="M121.351 11.2553C120.258 11.2998 119.927 11.5619 119.665 12.9613C118.285 20.2751 117.672 22.7723 117.672 23.7811C117.672 24.2608 118.068 24.5674 119.403 24.6119V25.5762C118.834 25.4872 117.717 25.4427 116.184 25.4427C114.28 25.4427 112.856 25.4872 112.064 25.5762V24.6119C113.597 24.6119 114.037 23.9542 114.191 23.2569L116.248 13.2037L116.203 13.1394L109.898 24.1124L110.032 25.5811C109.725 25.4921 109.003 25.4476 108.346 25.4476C107.624 25.4476 107.1 25.4921 106.724 25.5811L105.893 13.2086L105.848 13.1443C104.142 19.8004 102.961 22.8218 102.961 23.7416C102.961 24.1817 103.178 24.6168 104.404 24.6168V25.5811C104.078 25.4921 103.44 25.4476 102.565 25.4476C101.467 25.4476 100.661 25.4921 100.201 25.5811V24.6168C101.363 24.3993 101.556 24.1372 101.907 23.0394C102.278 21.8575 104.973 12.5707 104.973 11.9575C104.973 11.4778 104.622 11.2998 103.529 11.2553V10.291H103.574C103.969 10.291 105.018 10.4245 106.18 10.4245H108.959L109.79 22.1196H109.834L116.515 10.4245H118.879C120.041 10.4245 120.961 10.291 121.312 10.291H121.356V11.2553H121.351Z" fill="white"/>
<path d="M134.599 15.6554L133.418 20.4323L132.498 20.2345C132.587 19.8191 132.696 19.4037 132.696 18.9636C132.696 18.657 132.562 18.3949 131.687 18.3949H127.701L126.188 24.3933H130.416C133.309 24.3933 134.313 23.1224 134.862 21.6142L135.826 21.901L134.708 25.4466H125.664C122.291 25.4466 120.976 25.5801 120.847 25.5801H120.803V24.6158C122.009 24.5713 122.534 24.3092 122.815 23.2361C123.493 20.6746 125.664 12.8762 125.664 11.8922C125.664 11.3878 125.07 11.2988 123.933 11.2592V10.2949C125.639 10.3394 127.37 10.4284 129.081 10.4284C131.687 10.4284 134.313 10.3394 136.919 10.2949L136.568 13.8405L135.559 13.7515C135.494 11.8674 135.272 11.4718 134.006 11.4718H129.58L127.983 17.3416H130.787C133.042 17.3416 133.215 17.0548 133.655 15.4378L134.594 15.6554H134.599Z" fill="white"/>
<path d="M136.157 24.6158C137.601 24.4427 137.952 24.2449 138.284 22.885C138.61 21.5944 141.241 12.7032 141.241 12.0455C141.241 11.4323 140.89 11.279 139.421 11.2592V10.2949C139.99 10.3394 141.196 10.4284 142.467 10.4284C144.218 10.4284 144.747 10.2949 147.417 10.2949C150.265 10.2949 152.278 11.3482 152.278 13.8207C152.278 16.2933 150.636 18.1773 148.119 18.4196L150.399 23.3449C150.903 24.4378 151.887 24.5713 152.743 24.6158V25.5801C152.219 25.4911 151.65 25.4466 151.057 25.4466H147.575L144.861 18.835H143.041C142.032 22.2966 141.681 22.9295 141.681 23.8493C141.681 24.3537 142.141 24.5268 143.609 24.6158V25.5801C142.798 25.4911 141.379 25.4466 139.451 25.4466C137.898 25.4466 136.78 25.4911 136.167 25.5801V24.6158H136.157ZM143.318 17.7372C143.56 17.757 143.886 17.7817 144.282 17.7817C147.284 17.7817 148.683 16.1153 148.683 13.707C148.683 12.0653 147.808 11.3433 146.211 11.3433C145.859 11.3433 145.489 11.3878 145.137 11.3878L143.318 17.7372Z" fill="white"/>
<path d="M153.742 20.6318C153.984 20.6763 154.291 20.7208 154.681 20.7208C154.968 20.7208 155.314 20.6763 155.576 20.6318C155.576 23.2378 156.649 24.751 159.275 24.751C161.466 24.751 162.737 23.9648 162.737 22.234C162.737 19.4746 155.25 19.5389 155.25 14.5939C155.25 11.617 157.747 10.084 161.184 10.084C163.132 10.084 164.799 10.5439 166.505 11.2213L166.198 14.2873C165.956 14.1983 165.669 14.1538 165.323 14.1538C165.017 14.1538 164.73 14.1983 164.512 14.2873C164.492 12.0966 163.395 11.1323 161.466 11.1323C159.231 11.1323 158.182 11.8345 158.182 13.1054C158.182 16.2159 165.669 15.756 165.669 20.8593C165.669 23.7076 163.479 25.8093 160.022 25.8093C157.263 25.8093 155.225 24.9983 153.386 23.6631L153.737 20.6417L153.742 20.6318Z" fill="white"/>
</g>
<defs>
<clipPath id="clip0_11506_93461">
<rect width="166.648" height="45" fill="white"/>
</clipPath>
</defs>
</svg>
